WHEN A MEAN DANCING ELF TRICKS SWIPER & TRAPS HIM IN A BOTTLE,DORA NEEDS TO DANCE TO THE RESCUE! HELP DORA & BOOTS MOVE & GROOVE THEIR WAY THROUGH A PYRAMID, ACROSS THE OCEAN & TO KINGJUAN EL BOBO'S CASTLE SO THEY CAN WIN ONE BIG WISH & SAVE SWIPER.


Format : MPEG-4
Format profile : Base Media / Version 2
Codec ID : mp42
File size : 900 MiB
Duration : 1h 34mn
Overall bit rate : 1 331 Kbps
Encoded date : UTC 2010-05-23 05:59:57
Tagged date : UTC 2010-05-23 09:55:40
Writing application : HandBrake 0.9.3 2008112300

Video
ID : 1
Format : AVC
Format/Info : Advanced Video Codec
Format profile : Main@L4.0
Format settings, CABAC : Yes
Format settings, ReFrames : 3 frames
Codec ID : avc1
Codec ID/Info : Advanced Video Coding
Duration : 1h 34mn
Bit rate mode : Variable
Bit rate : 1 167 Kbps
Width : 718 pixels
Height : 572 pixels
Display aspect ratio : 4:3
Frame rate mode : Variable
Frame rate : 25.000 fps
Minimum frame rate : 12.500 fps
Maximum frame rate : 89.054 fps
Resolution : 8 bits
Colorimetry : 4:2:0
Scan type : Progressive
Bits/(Pixel*Frame) : 0.114
Stream size : 789 MiB (88%)
Writing library : x264 core 65

Language : English
Encoded date : UTC 2010-05-23 05:59:57
Tagged date : UTC 2010-05-23 09:55:40
Color primaries : BT.601-6 525, BT.1358 525, BT.1700 NTSC, SMPTE 170M
Transfer characteristics : BT.709-5, BT.1361
Matrix coefficients : BT.601-6 525, BT.1358 525, BT.1700 NTSC, SMPTE 170M

Audio
ID : 2
Format : AAC
Format/Info : Advanced Audio Codec
Format version : Version 4
Format profile : LC
Format settings, SBR : No
Codec ID : 40
Duration : 1h 34mn
Bit rate mode : Variable
Bit rate : 160 Kbps
Maximum bit rate : 242 Kbps
Channel(s) : 2 channels
Channel positions : L R
Sampling rate : 48.0 KHz
Stream size : 108 MiB (12%)
Language : English
Encoded date : UTC 2010-05-23 05:59:57
Tagged date : UTC 2010-05-23 09:55:34
